<?xml version="1.0" encoding="UTF-8"?>
<svg id="Layer_2" data-name="Layer 2" xmlns="http://www.w3.org/2000/svg" viewBox="0 0 122.58 118.12">
  <defs>
    <style>
      .cls-1 {
        fill: #fff;
        stroke-width: 0px;
      }
    </style>
  </defs>
  <g id="Layer_1-2" data-name="Layer 1">
    <path class="cls-1" d="M77.5,57.92c9.64-5.87,15.86-16.82,14.92-29.13C91.27,13.49,78.82,1.13,63.51.08,45.26-1.18,30.06,13.25,30.06,31.23c0,11.31,6.01,21.22,15.02,26.7C19.66,65.01,0,85.31,0,112.99c0,.09,0,2.17,0,2.26,0,2.06.86,2.87,2.9,2.87h116.84c1.81,0,2.84-.93,2.84-2.8,0-.11,0-2.22,0-2.33,0-27.68-19.66-47.98-45.08-55.07Z"/>
  </g>
</svg>