<?xml version="1.0" encoding="UTF-8"?>
<svg id="Layer_2" data-name="Layer 2" xmlns="http://www.w3.org/2000/svg" viewBox="0 0 151.65 125.51">
  <defs>
    <style>
      .cls-1 {
        fill: #fff;
        stroke-width: 0px;
      }
    </style>
  </defs>
  <g id="Layer_1-2" data-name="Layer 1">
    <path class="cls-1" d="M150.23,42.43L77.39.38c-.53-.3-1.11-.42-1.67-.36-.5,0-1.01.1-1.47.37L1.42,42.43c-1.36.78-1.82,2.52-1.04,3.88l1.16,2.01c.78,1.36,2.52,1.82,3.88,1.04l13.13-7.58v67.97c0,10.91,4.84,15.75,15.75,15.75h86.7c10.91,0,15.75-4.84,15.75-15.75V43.89l9.47,5.47c1.36.78,3.09.32,3.88-1.04l1.16-2.01c.78-1.36.32-3.09-1.04-3.88ZM93.13,118.46h-34.62v-51.19h34.62v51.19ZM129.73,106.67c0,8.72-3.07,11.78-11.78,11.78h-16.82v-56.36c0-1.57-1.27-2.84-2.84-2.84h-44.94c-1.57,0-2.84,1.27-2.84,2.84v.29s0,0,0,0v56.07h-13.16c-8.72,0-11.78-3.07-11.78-11.78V37.72l50.25-29.01,53.91,31.12v66.84Z"/>
  </g>
</svg>