<?xml version="1.0" encoding="UTF-8"?>
<svg id="Layer_2" data-name="Layer 2" xmlns="http://www.w3.org/2000/svg" viewBox="0 0 113 118.58">
  <defs>
    <style>
      .cls-1 {
        fill: #fff;
        stroke-width: 0px;
      }
    </style>
  </defs>
  <g id="Layer_1-2" data-name="Layer 1">
    <g>
      <path class="cls-1" d="M44.33,60.63v-2.68c0-1.15.93-2.08,2.08-2.08h41.83V23.1c0-12.76-10.34-23.1-23.1-23.1H23.1C10.34,0,0,10.34,0,23.1v72.37c0,12.76,10.34,23.1,23.1,23.1h42.04c12.76,0,23.1-10.34,23.1-23.1v-32.76h-41.83c-1.15,0-2.08-.93-2.08-2.08Z"/>
      <path class="cls-1" d="M112.4,57.78l-14.67-14.67c-.81-.81-2.13-.81-2.95,0l-1.89,1.89c-.81.81-.81,2.13,0,2.95l7.92,7.92h-12.56v6.85h12.56l-7.92,7.92c-.81.81-.81,2.13,0,2.95l1.89,1.89c.81.81,2.13.81,2.95,0l14.67-14.67c.42-.42.62-.97.61-1.51.01-.55-.19-1.1-.61-1.51Z"/>
    </g>
  </g>
</svg>