<?xml version="1.0" encoding="UTF-8"?>
<svg id="Layer_2" data-name="Layer 2" xmlns="http://www.w3.org/2000/svg" viewBox="0 0 153.19 118.57">
  <defs>
    <style>
      .cls-1 {
        fill: #fff;
        stroke-width: 0px;
      }
    </style>
  </defs>
  <g id="Layer_1-2" data-name="Layer 1">
    <g>
      <path class="cls-1" d="M151.62,103.95L86,5.06c-4.46-6.74-14.35-6.74-18.81,0L1.47,104.91c-3.87,5.86.33,13.66,7.35,13.66h134.93c7.51,0,12-8.35,7.86-14.62ZM138.7,111.59l-124.18.27c-5.76,0-6.53-4.12-3.36-8.92L71.84,11.77c3.65-5.53,5.85-4.47,9.51,1.06l60.55,90.12c3.4,5.14,2.96,8.65-3.2,8.65Z"/>
      <path class="cls-1" d="M76.44,38.19h.32c2.54,0,4.59,2.06,4.59,4.59v34.97c0,2.54-2.06,4.59-4.59,4.59h-.32c-2.54,0-4.59-2.06-4.59-4.59v-34.97c0-2.54,2.06-4.59,4.59-4.59Z"/>
      <circle class="cls-1" cx="76.6" cy="93.4" r="6.35"/>
    </g>
  </g>
</svg>