<?xml version="1.0" encoding="UTF-8"?>
<svg id="Layer_2" data-name="Layer 2" xmlns="http://www.w3.org/2000/svg" viewBox="0 0 143.33 118.35">
  <defs>
    <style>
      .cls-1 {
        fill: #fff;
        stroke-width: 0px;
      }
    </style>
  </defs>
  <g id="Layer_1-2" data-name="Layer 1">
    <g>
      <rect class="cls-1" y="54.19" width="143.33" height="9.98" rx="4.03" ry="4.03"/>
      <path class="cls-1" d="M19.05,25.18c0-10.13,8.21-18.33,18.33-18.33h13.92V0h-17.3C21.96,0,12.2,9.76,12.2,21.8v17.3h6.85v-13.92Z"/>
      <path class="cls-1" d="M19.05,93.17v-13.92h-6.85v17.3c0,12.04,9.76,21.8,21.8,21.8h17.3v-6.85h-13.92c-10.13,0-18.33-8.21-18.33-18.33Z"/>
      <path class="cls-1" d="M123.71,25.18v13.92h6.85v-17.3c0-12.04-9.76-21.8-21.8-21.8h-17.3v6.85h13.92c10.13,0,18.33,8.21,18.33,18.33Z"/>
      <path class="cls-1" d="M123.71,93.17c0,10.13-8.21,18.33-18.33,18.33h-13.92v6.85h17.3c12.04,0,21.8-9.76,21.8-21.8v-17.3h-6.85v13.92Z"/>
    </g>
  </g>
</svg>