<?xml version="1.0" encoding="UTF-8"?>
<svg id="Layer_2" data-name="Layer 2" xmlns="http://www.w3.org/2000/svg" viewBox="0 0 119.04 118.54">
  <defs>
    <style>
      .cls-1 {
        fill: #fff;
        stroke-width: 0px;
      }
    </style>
  </defs>
  <g id="Layer_1-2" data-name="Layer 1">
    <path class="cls-1" d="M117.85,110.05l-33.97-33.97c6.32-8,10.1-18.1,10.1-29.09C93.98,21.04,72.94,0,46.99,0S0,21.04,0,46.99s21.04,46.99,46.99,46.99c11.24,0,21.56-3.95,29.65-10.54l33.91,33.91c1.58,1.58,4.14,1.58,5.72,0l1.58-1.58c1.58-1.58,1.58-4.14,0-5.72ZM19.82,30.53c-1.92,3.23-3.29,6.85-3.94,10.78-.88,5.26-.37,10.44,1.24,15.15.29.85-.03,1.79-.76,2.31l-1.48,1.06c-1.1.79-2.67.32-3.13-.95-2.06-5.74-2.74-12.08-1.66-18.53.79-4.76,2.46-9.15,4.82-13.04.65-1.08,2.11-1.32,3.08-.52l1.37,1.13c.78.64.99,1.75.47,2.62Z"/>
  </g>
</svg>