<?xml version="1.0" encoding="UTF-8"?>
<svg id="Layer_2" data-name="Layer 2" xmlns="http://www.w3.org/2000/svg" viewBox="0 0 119.04 118.54">
  <defs>
    <style>
      .cls-1 {
        fill: #fff;
        stroke-width: 0px;
      }
    </style>
  </defs>
  <g id="Layer_1-2" data-name="Layer 1">
    <path class="cls-1" d="M117.85,110.05l-33.97-33.97c6.32-8,10.1-18.1,10.1-29.09C93.98,21.04,72.94,0,46.99,0S0,21.04,0,46.99s21.04,46.99,46.99,46.99c11.24,0,21.56-3.95,29.65-10.54l33.91,33.91c1.58,1.58,4.14,1.58,5.72,0l1.58-1.58c1.58-1.58,1.58-4.14,0-5.72ZM7.31,46.99C7.31,25.08,25.08,7.31,46.99,7.31s39.68,17.77,39.68,39.68-17.77,39.68-39.68,39.68S7.31,68.91,7.31,46.99Z"/>
  </g>
</svg>