<?xml version="1.0" encoding="UTF-8"?>
<svg id="Layer_2" data-name="Layer 2" xmlns="http://www.w3.org/2000/svg" viewBox="0 0 153.19 118.57">
  <defs>
    <style>
      .cls-1 {
        fill: #fff;
        stroke-width: 0px;
      }
    </style>
  </defs>
  <g id="Layer_1-2" data-name="Layer 1">
    <path class="cls-1" d="M151.62,103.95L86,5.06c-4.46-6.74-14.35-6.74-18.81,0L1.47,104.91c-3.87,5.86.33,13.66,7.35,13.66h134.93c7.51,0,12-8.35,7.86-14.62ZM71.84,42.79c0-2.54,2.06-4.59,4.59-4.59h.32c2.54,0,4.59,2.06,4.59,4.59v34.97c0,2.54-2.06,4.59-4.59,4.59h-.32c-2.54,0-4.59-2.06-4.59-4.59v-34.97ZM76.6,99.75c-3.51,0-6.35-2.84-6.35-6.35s2.84-6.35,6.35-6.35,6.35,2.84,6.35,6.35-2.84,6.35-6.35,6.35Z"/>
  </g>
</svg>