<?xml version="1.0" encoding="UTF-8"?>
<svg id="Layer_2" data-name="Layer 2" xmlns="http://www.w3.org/2000/svg" viewBox="0 0 143.33 118.35">
  <defs>
    <style>
      .cls-1 {
        fill: #fff;
        stroke-width: 0px;
      }
    </style>
  </defs>
  <g id="Layer_1-2" data-name="Layer 1">
    <g>
      <path class="cls-1" d="M4.03,54.19c-2.23,0-4.03,1.81-4.03,4.03v1.91c0,2.23,1.81,4.03,4.03,4.03h15.3v-9.98H4.03Z"/>
      <path class="cls-1" d="M109.05,0h-17.3v6.85h-40.16V0h-17.3C22.25,0,12.49,9.76,12.49,21.8v17.3h6.84v-12.98c0-10.64,8.63-19.27,19.27-19.27h12.91v6.05h-9.92c-8.95,0-16.21,7.26-16.21,16.21v10.05h-6.05v15.03h104.66v-15.06h-6.01v-10.02c0-8.95-7.26-16.21-16.21-16.21h-10.04v-6.05h13.03c10.64,0,19.27,8.63,19.27,19.27v12.98h6.8v-17.3c0-12.04-9.76-21.8-21.8-21.8Z"/>
      <g>
        <path class="cls-1" d="M124.01,92.24c0,10.64-8.63,19.27-19.27,19.27h-13v6.84h17.3c12.04,0,21.8-9.76,21.8-21.8v-17.3h-6.83v12.99Z"/>
        <path class="cls-1" d="M139.3,54.19h-15.34v9.98H19.34v15.09h-6.85v17.3c0,12.04,9.76,21.8,21.8,21.8h17.3v-6.84h-13.01c-10.64,0-19.27-8.63-19.27-19.27v-12.95h6.05v9.96c0,8.95,7.26,16.21,16.21,16.21h10.03v6.05h40.14v-6.05h10.01c8.95,0,16.21-7.26,16.21-16.21v-10h6.04v-15.08h15.3c2.23,0,4.03-1.81,4.03-4.03v-1.91c0-2.23-1.81-4.03-4.03-4.03Z"/>
      </g>
    </g>
  </g>
</svg>